<svg width="861" height="287" viewBox="0 0 861 287" fill="none" xmlns="http://www.w3.org/2000/svg">
<path d="M1.00024 283.552C149.5 242.053 238.5 -2.9516 288.5 1.04843C338.5 5.04846 227.5 105.053 201 130.053C219 116.889 293 98.0483 297.5 151.048C302 204.048 168.5 248.922 236 198.048C303.5 147.175 410.5 38.0486 390 29.0485C369.5 20.0485 318 221.41 325.5 189.048C333 156.686 384.096 92.7628 375.5 142.548C366.904 192.334 410.801 131.688 427 116.049C443.2 100.409 436.257 132.21 422.372 161.925C439.729 134.295 454.193 105.368 462 111.549C469.807 117.729 472 138.549 490 108.048C508 77.5485 481.5 152.048 492 145.048C502.5 138.048 527.192 96.0486 559.5 110.049C549.116 105.549 526.5 105.548 521.5 122.548C516.5 139.548 549.5 138.549 561.5 106.549C548.5 192.549 501.5 335.048 499.5 269.048C497.5 203.049 594.556 87.0484 586 108.048C563.518 163.233 639.531 73.8599 619 101.049C598.47 128.237 690 71.0486 860 85.0483" stroke="black" stroke-width="2" stroke-linecap="round" stroke-linejoin="round"/>
<path d="M503 74.053C495.533 74.792 497.5 86.053 503 85.553C508.5 85.053 510.468 73.314 503 74.053Z" stroke="black" stroke-width="2"/>
</svg>
